# xmcd
#
# Track frame offsets:
#	150
#	20851
#	41245
#	55417
#	65922
#	80277
#	91841
#	104052
#	116410
#	126941
#	136619
#	147824
#	160011
#	173949
#	185412
#	201484
#	251471
#	263470
#	275677
#	288839
#
# Disc length: 4091 seconds
#
# Revision: 0
# Processed by: cddbd v1.5.2PL0 Copyright (c) Steve Scherf et al.
# Submitted via: audiograbber 1.83.01
#
DISCID=2a0ff914
DTITLE=Credence Clearwater Revival - Chronicle- The greatest Hits
DYEAR=1994
DGENRE=
TTITLE0=Susie Q
TTITLE1=I put a spell on you
TTITLE2=Proud Mary
TTITLE3=Bad Moon Rising
TTITLE4=Lodi
TTITLE5=Green River
TTITLE6=Commotion
TTITLE7=Down on the corner
TTITLE8=Fortunate Son
TTITLE9=Travelin' Band
TTITLE10=Who'll stop the rain
TTITLE11=Up around the bend
TTITLE12=Run through the jungle
TTITLE13=Lookin' out my back door
TTITLE14=Long as I can see the light
TTITLE15=I heard it through the grapevine
TTITLE16=have you ever seen the rain
TTITLE17=Hey tonight
TTITLE18=Sweet Hitch-Hiker
TTITLE19=Someday never comes
EXTD=
EXTT0=
EXTT1=
EXTT2=
EXTT3=
EXTT4=
EXTT5=
EXTT6=
EXTT7=
EXTT8=
EXTT9=
EXTT10=
EXTT11=
EXTT12=
EXTT13=
EXTT14=
EXTT15=
EXTT16=
EXTT17=
EXTT18=
EXTT19=
PLAYORDER=
